<?xml version="1.0" encoding="UTF-8" standalone="no"?> <!-- Created with Vectornator for iOS (http://vectornator.io/) --><!DOCTYPE svg PUBLIC "-//W3C//DTD SVG 1.1//EN" "http://www.w3.org/Graphics/SVG/1.1/DTD/svg11.dtd">
<svg style="fill-rule:evenodd;clip-rule:evenodd;stroke-linecap:round;stroke-linejoin:round;" xmlns:vectornator="http://vectornator.io" xmlns:xlink="http://www.w3.org/1999/xlink" xmlns="http://www.w3.org/2000/svg" xml:space="preserve" version="1.1" viewBox="0 0 18 18">
<metadata>
<vectornator:setting key="DynamicGuides" value="1"/>
<vectornator:setting key="Units" value="Points"/>
<vectornator:setting key="GuidesVisible" value="1"/>
<vectornator:setting key="GridSpacing" value="36"/>
<vectornator:setting key="SnapToGuides" value="1"/>
<vectornator:setting key="RulersVisible" value="1"/>
</metadata>
<defs/>
<g id="Untitled" vectornator:layerName="Untitled">
<path d="M16.1359+5.46392L13.5785+5.46392C13.3257+5.46392+13.1206+5.25893+13.1206+5.00607C13.1206+4.75321+13.3257+4.54822+13.5785+4.54822L17.2413+4.54822C17.4941+4.54822+17.6991+4.75321+17.6991+5.00607L17.6991+8.66885C17.6991+8.92167+17.4941+9.1267+17.2413+9.1267C16.9884+9.1267+16.7834+8.92167+16.7834+8.66885L16.7834+6.11141L11.1552+11.7397C10.9763+11.9185+10.6864+11.9185+10.5076+11.7397L6.25292+7.48495L1.08249+12.6554C0.903695+12.8342+0.613805+12.8342+0.435006+12.6554C0.256198+12.4766+0.256198+12.1867+0.435006+12.0078L5.92917+6.51372C6.10797+6.33491+6.39786+6.33491+6.57666+6.51372L10.8314+10.7684L16.1359+5.46392Z" fill-rule="evenodd" fill="#000000" opacity="1"/>
</g>
</svg>
